<mxfile host="app.diagrams.net" agent="Mozilla/5.0 (X11; Linux x86_64; rv:127.0) Gecko/20100101 Firefox/127.0" version="24.7.14">
  <diagram name="PÃ¡gina-1" id="4c4mgVNoYLlspTbkIYWk">
    <mxGraphModel dx="1434" dy="763" grid="1" gridSize="10" guides="1" tooltips="1" connect="1" arrows="1" fold="1" page="1" pageScale="1" pageWidth="827" pageHeight="1169" math="0" shadow="0">
      <root>
        <mxCell id="0" />
        <mxCell id="1" parent="0" />
        <mxCell id="anY5kWendyJgziAYYlbM-37" style="rounded=0;orthogonalLoop=1;jettySize=auto;html=1;entryX=0;entryY=0;entryDx=0;entryDy=0;endArrow=none;endFill=0;exitX=0.433;exitY=0.967;exitDx=0;exitDy=0;exitPerimeter=0;" parent="1" source="anY5kWendyJgziAYYlbM-1" target="anY5kWendyJgziAYYlbM-36" edge="1">
          <mxGeometry relative="1" as="geometry">
            <mxPoint x="291.641304347826" y="240" as="sourcePoint" />
            <mxPoint x="416" y="325" as="targetPoint" />
          </mxGeometry>
        </mxCell>
        <mxCell id="anY5kWendyJgziAYYlbM-1" value="Vehiculo" style="rounded=0;whiteSpace=wrap;html=1;" parent="1" vertex="1">
          <mxGeometry x="206" y="165" width="120" height="60" as="geometry" />
        </mxCell>
        <mxCell id="anY5kWendyJgziAYYlbM-2" value="Propietario" style="rounded=0;whiteSpace=wrap;html=1;" parent="1" vertex="1">
          <mxGeometry x="531" y="165" width="120" height="60" as="geometry" />
        </mxCell>
        <mxCell id="anY5kWendyJgziAYYlbM-3" value="Infraccion" style="rounded=0;whiteSpace=wrap;html=1;" parent="1" vertex="1">
          <mxGeometry x="206" y="400" width="120" height="60" as="geometry" />
        </mxCell>
        <mxCell id="anY5kWendyJgziAYYlbM-5" style="rounded=0;orthogonalLoop=1;jettySize=auto;html=1;exitX=1;exitY=0.5;exitDx=0;exitDy=0;entryX=0;entryY=0;entryDx=0;entryDy=0;endArrow=none;endFill=0;" parent="1" source="anY5kWendyJgziAYYlbM-4" target="anY5kWendyJgziAYYlbM-1" edge="1">
          <mxGeometry relative="1" as="geometry" />
        </mxCell>
        <mxCell id="anY5kWendyJgziAYYlbM-4" value="Matricula" style="text;html=1;align=center;verticalAlign=middle;whiteSpace=wrap;rounded=0;fillColor=#c0bfbc;fillStyle=solid;" parent="1" vertex="1">
          <mxGeometry x="86" y="100" width="60" height="30" as="geometry" />
        </mxCell>
        <mxCell id="anY5kWendyJgziAYYlbM-11" style="rounded=0;orthogonalLoop=1;jettySize=auto;html=1;exitX=1;exitY=0.5;exitDx=0;exitDy=0;entryX=0;entryY=0.25;entryDx=0;entryDy=0;endArrow=none;endFill=0;" parent="1" source="anY5kWendyJgziAYYlbM-10" target="anY5kWendyJgziAYYlbM-1" edge="1">
          <mxGeometry relative="1" as="geometry" />
        </mxCell>
        <mxCell id="anY5kWendyJgziAYYlbM-10" value="Tipo" style="text;html=1;align=center;verticalAlign=middle;whiteSpace=wrap;rounded=0;fillColor=#ffffff;fillStyle=solid;" parent="1" vertex="1">
          <mxGeometry x="86" y="150" width="60" height="30" as="geometry" />
        </mxCell>
        <mxCell id="anY5kWendyJgziAYYlbM-13" style="rounded=0;orthogonalLoop=1;jettySize=auto;html=1;exitX=1;exitY=0.5;exitDx=0;exitDy=0;entryX=0;entryY=0.5;entryDx=0;entryDy=0;endArrow=none;endFill=0;" parent="1" source="anY5kWendyJgziAYYlbM-12" target="anY5kWendyJgziAYYlbM-1" edge="1">
          <mxGeometry relative="1" as="geometry" />
        </mxCell>
        <mxCell id="anY5kWendyJgziAYYlbM-12" value="Marca" style="text;html=1;align=center;verticalAlign=middle;whiteSpace=wrap;rounded=0;fillColor=#ffffff;fillStyle=solid;" parent="1" vertex="1">
          <mxGeometry x="86" y="190" width="60" height="30" as="geometry" />
        </mxCell>
        <mxCell id="anY5kWendyJgziAYYlbM-15" style="rounded=0;orthogonalLoop=1;jettySize=auto;html=1;exitX=1;exitY=0.25;exitDx=0;exitDy=0;entryX=0;entryY=0.75;entryDx=0;entryDy=0;endArrow=none;endFill=0;" parent="1" source="anY5kWendyJgziAYYlbM-14" target="anY5kWendyJgziAYYlbM-1" edge="1">
          <mxGeometry relative="1" as="geometry" />
        </mxCell>
        <mxCell id="anY5kWendyJgziAYYlbM-14" value="Modelo" style="text;html=1;align=center;verticalAlign=middle;whiteSpace=wrap;rounded=0;fillColor=#ffffff;fillStyle=solid;" parent="1" vertex="1">
          <mxGeometry x="86" y="230" width="60" height="30" as="geometry" />
        </mxCell>
        <mxCell id="anY5kWendyJgziAYYlbM-17" style="rounded=0;orthogonalLoop=1;jettySize=auto;html=1;entryX=1;entryY=0.5;entryDx=0;entryDy=0;endArrow=none;endFill=0;" parent="1" source="anY5kWendyJgziAYYlbM-16" target="anY5kWendyJgziAYYlbM-1" edge="1">
          <mxGeometry relative="1" as="geometry" />
        </mxCell>
        <mxCell id="anY5kWendyJgziAYYlbM-18" style="rounded=0;orthogonalLoop=1;jettySize=auto;html=1;exitX=1;exitY=0.5;exitDx=0;exitDy=0;entryX=0;entryY=0.5;entryDx=0;entryDy=0;endArrow=none;endFill=0;" parent="1" source="anY5kWendyJgziAYYlbM-16" target="anY5kWendyJgziAYYlbM-2" edge="1">
          <mxGeometry relative="1" as="geometry" />
        </mxCell>
        <mxCell id="anY5kWendyJgziAYYlbM-16" value="" style="rhombus;whiteSpace=wrap;html=1;" parent="1" vertex="1">
          <mxGeometry x="406" y="170" width="56.5" height="50" as="geometry" />
        </mxCell>
        <mxCell id="anY5kWendyJgziAYYlbM-23" style="rounded=0;orthogonalLoop=1;jettySize=auto;html=1;exitX=0;exitY=0.5;exitDx=0;exitDy=0;entryX=1;entryY=0.25;entryDx=0;entryDy=0;endArrow=none;endFill=0;" parent="1" source="anY5kWendyJgziAYYlbM-19" target="anY5kWendyJgziAYYlbM-2" edge="1">
          <mxGeometry relative="1" as="geometry" />
        </mxCell>
        <mxCell id="anY5kWendyJgziAYYlbM-19" value="DNI" style="text;html=1;align=center;verticalAlign=middle;whiteSpace=wrap;rounded=0;fillColor=#c0bfbc;fillStyle=solid;" parent="1" vertex="1">
          <mxGeometry x="701" y="100" width="60" height="30" as="geometry" />
        </mxCell>
        <mxCell id="anY5kWendyJgziAYYlbM-24" style="rounded=0;orthogonalLoop=1;jettySize=auto;html=1;exitX=0;exitY=0.5;exitDx=0;exitDy=0;entryX=1;entryY=0.5;entryDx=0;entryDy=0;endArrow=none;endFill=0;" parent="1" source="anY5kWendyJgziAYYlbM-20" target="anY5kWendyJgziAYYlbM-2" edge="1">
          <mxGeometry relative="1" as="geometry" />
        </mxCell>
        <mxCell id="anY5kWendyJgziAYYlbM-20" value="Nombre" style="text;html=1;align=center;verticalAlign=middle;whiteSpace=wrap;rounded=0;fillColor=#ffffff;fillStyle=solid;" parent="1" vertex="1">
          <mxGeometry x="701" y="150" width="60" height="30" as="geometry" />
        </mxCell>
        <mxCell id="anY5kWendyJgziAYYlbM-25" style="rounded=0;orthogonalLoop=1;jettySize=auto;html=1;exitX=0;exitY=0.75;exitDx=0;exitDy=0;entryX=1;entryY=0.75;entryDx=0;entryDy=0;endArrow=none;endFill=0;" parent="1" source="anY5kWendyJgziAYYlbM-21" target="anY5kWendyJgziAYYlbM-2" edge="1">
          <mxGeometry relative="1" as="geometry" />
        </mxCell>
        <mxCell id="anY5kWendyJgziAYYlbM-21" value="Apeliidos" style="text;html=1;align=center;verticalAlign=middle;whiteSpace=wrap;rounded=0;fillColor=#ffffff;fillStyle=solid;" parent="1" vertex="1">
          <mxGeometry x="701" y="190" width="60" height="30" as="geometry" />
        </mxCell>
        <mxCell id="anY5kWendyJgziAYYlbM-26" style="rounded=0;orthogonalLoop=1;jettySize=auto;html=1;exitX=0;exitY=0.5;exitDx=0;exitDy=0;entryX=1;entryY=1;entryDx=0;entryDy=0;endArrow=none;endFill=0;" parent="1" source="anY5kWendyJgziAYYlbM-22" target="anY5kWendyJgziAYYlbM-2" edge="1">
          <mxGeometry relative="1" as="geometry" />
        </mxCell>
        <mxCell id="anY5kWendyJgziAYYlbM-22" value="Direccion" style="text;html=1;align=center;verticalAlign=middle;whiteSpace=wrap;rounded=0;fillColor=#ffffff;fillStyle=solid;" parent="1" vertex="1">
          <mxGeometry x="701" y="230" width="60" height="30" as="geometry" />
        </mxCell>
        <mxCell id="anY5kWendyJgziAYYlbM-27" value="(0,N)" style="text;html=1;align=center;verticalAlign=middle;resizable=0;points=[];autosize=1;strokeColor=none;fillColor=none;" parent="1" vertex="1">
          <mxGeometry x="326" y="150" width="50" height="30" as="geometry" />
        </mxCell>
        <mxCell id="anY5kWendyJgziAYYlbM-28" value="(1,1)" style="text;html=1;align=center;verticalAlign=middle;resizable=0;points=[];autosize=1;strokeColor=none;fillColor=none;" parent="1" vertex="1">
          <mxGeometry x="490" y="150" width="50" height="30" as="geometry" />
        </mxCell>
        <mxCell id="anY5kWendyJgziAYYlbM-29" value="1:N" style="text;html=1;align=center;verticalAlign=middle;resizable=0;points=[];autosize=1;strokeColor=none;fillColor=none;" parent="1" vertex="1">
          <mxGeometry x="416" y="138" width="40" height="30" as="geometry" />
        </mxCell>
        <mxCell id="anY5kWendyJgziAYYlbM-33" style="rounded=0;orthogonalLoop=1;jettySize=auto;html=1;entryX=0;entryY=0.25;entryDx=0;entryDy=0;endArrow=none;endFill=0;" parent="1" source="anY5kWendyJgziAYYlbM-30" target="anY5kWendyJgziAYYlbM-3" edge="1">
          <mxGeometry relative="1" as="geometry" />
        </mxCell>
        <mxCell id="anY5kWendyJgziAYYlbM-30" value="Codigo" style="text;html=1;align=center;verticalAlign=middle;whiteSpace=wrap;rounded=0;fillColor=#c0bfbc;fillStyle=solid;" parent="1" vertex="1">
          <mxGeometry x="86" y="370" width="60" height="30" as="geometry" />
        </mxCell>
        <mxCell id="anY5kWendyJgziAYYlbM-34" style="rounded=0;orthogonalLoop=1;jettySize=auto;html=1;exitX=1;exitY=0.5;exitDx=0;exitDy=0;entryX=0;entryY=0.5;entryDx=0;entryDy=0;endArrow=none;endFill=0;" parent="1" source="anY5kWendyJgziAYYlbM-31" target="anY5kWendyJgziAYYlbM-3" edge="1">
          <mxGeometry relative="1" as="geometry" />
        </mxCell>
        <mxCell id="anY5kWendyJgziAYYlbM-31" value="Descripcion" style="text;html=1;align=center;verticalAlign=middle;whiteSpace=wrap;rounded=0;fillColor=#ffffff;fillStyle=solid;" parent="1" vertex="1">
          <mxGeometry x="86" y="415" width="60" height="30" as="geometry" />
        </mxCell>
        <mxCell id="anY5kWendyJgziAYYlbM-35" style="rounded=0;orthogonalLoop=1;jettySize=auto;html=1;exitX=1;exitY=0.5;exitDx=0;exitDy=0;entryX=0;entryY=0.75;entryDx=0;entryDy=0;endArrow=none;endFill=0;" parent="1" source="anY5kWendyJgziAYYlbM-32" target="anY5kWendyJgziAYYlbM-3" edge="1">
          <mxGeometry relative="1" as="geometry" />
        </mxCell>
        <mxCell id="anY5kWendyJgziAYYlbM-32" value="Cuantia" style="text;html=1;align=center;verticalAlign=middle;whiteSpace=wrap;rounded=0;fillColor=#ffffff;fillStyle=solid;" parent="1" vertex="1">
          <mxGeometry x="86" y="460" width="60" height="30" as="geometry" />
        </mxCell>
        <mxCell id="anY5kWendyJgziAYYlbM-38" style="rounded=0;orthogonalLoop=1;jettySize=auto;html=1;exitX=1;exitY=1;exitDx=0;exitDy=0;endArrow=none;endFill=0;entryX=0.433;entryY=0;entryDx=0;entryDy=0;entryPerimeter=0;" parent="1" source="anY5kWendyJgziAYYlbM-36" target="dstXWBgIuasM4XewW3nN-3" edge="1">
          <mxGeometry relative="1" as="geometry">
            <mxPoint x="450.25" y="350" as="sourcePoint" />
            <mxPoint x="546" y="390" as="targetPoint" />
          </mxGeometry>
        </mxCell>
        <mxCell id="anY5kWendyJgziAYYlbM-36" value="" style="rhombus;whiteSpace=wrap;html=1;" parent="1" vertex="1">
          <mxGeometry x="407.75" y="280" width="56.5" height="50" as="geometry" />
        </mxCell>
        <mxCell id="dstXWBgIuasM4XewW3nN-1" value="(0,N)" style="text;html=1;align=center;verticalAlign=middle;resizable=0;points=[];autosize=1;strokeColor=none;fillColor=none;" vertex="1" parent="1">
          <mxGeometry x="496" y="460" width="50" height="30" as="geometry" />
        </mxCell>
        <mxCell id="dstXWBgIuasM4XewW3nN-12" style="rounded=0;orthogonalLoop=1;jettySize=auto;html=1;exitX=0;exitY=0.5;exitDx=0;exitDy=0;entryX=1;entryY=0.5;entryDx=0;entryDy=0;endArrow=none;endFill=0;" edge="1" parent="1" source="dstXWBgIuasM4XewW3nN-3" target="dstXWBgIuasM4XewW3nN-11">
          <mxGeometry relative="1" as="geometry" />
        </mxCell>
        <mxCell id="dstXWBgIuasM4XewW3nN-3" value="Multa" style="rounded=0;whiteSpace=wrap;html=1;" vertex="1" parent="1">
          <mxGeometry x="531" y="400" width="120" height="60" as="geometry" />
        </mxCell>
        <mxCell id="dstXWBgIuasM4XewW3nN-7" style="rounded=0;orthogonalLoop=1;jettySize=auto;html=1;exitX=0;exitY=0.5;exitDx=0;exitDy=0;entryX=1;entryY=0.25;entryDx=0;entryDy=0;endArrow=none;endFill=0;" edge="1" parent="1" source="dstXWBgIuasM4XewW3nN-4" target="dstXWBgIuasM4XewW3nN-3">
          <mxGeometry relative="1" as="geometry" />
        </mxCell>
        <mxCell id="dstXWBgIuasM4XewW3nN-4" value="Codigo" style="text;html=1;align=center;verticalAlign=middle;whiteSpace=wrap;rounded=0;fillColor=#c0bfbc;fillStyle=solid;" vertex="1" parent="1">
          <mxGeometry x="701" y="370" width="60" height="30" as="geometry" />
        </mxCell>
        <mxCell id="dstXWBgIuasM4XewW3nN-8" style="rounded=0;orthogonalLoop=1;jettySize=auto;html=1;exitX=0;exitY=0.5;exitDx=0;exitDy=0;entryX=1;entryY=0.5;entryDx=0;entryDy=0;endArrow=none;endFill=0;" edge="1" parent="1" source="dstXWBgIuasM4XewW3nN-5" target="dstXWBgIuasM4XewW3nN-3">
          <mxGeometry relative="1" as="geometry" />
        </mxCell>
        <mxCell id="dstXWBgIuasM4XewW3nN-5" value="Fecha" style="text;html=1;align=center;verticalAlign=middle;whiteSpace=wrap;rounded=0;fillColor=#ffffff;fillStyle=solid;" vertex="1" parent="1">
          <mxGeometry x="701" y="415" width="60" height="30" as="geometry" />
        </mxCell>
        <mxCell id="dstXWBgIuasM4XewW3nN-9" style="rounded=0;orthogonalLoop=1;jettySize=auto;html=1;exitX=0;exitY=0.5;exitDx=0;exitDy=0;entryX=1;entryY=0.75;entryDx=0;entryDy=0;endArrow=none;endFill=0;" edge="1" parent="1" source="dstXWBgIuasM4XewW3nN-6" target="dstXWBgIuasM4XewW3nN-3">
          <mxGeometry relative="1" as="geometry" />
        </mxCell>
        <mxCell id="dstXWBgIuasM4XewW3nN-6" value="Fecha pago" style="text;html=1;align=center;verticalAlign=middle;whiteSpace=wrap;rounded=0;fillColor=#ffffff;fillStyle=solid;" vertex="1" parent="1">
          <mxGeometry x="701" y="460" width="60" height="30" as="geometry" />
        </mxCell>
        <mxCell id="dstXWBgIuasM4XewW3nN-13" style="rounded=0;orthogonalLoop=1;jettySize=auto;html=1;exitX=0;exitY=0.5;exitDx=0;exitDy=0;endArrow=none;endFill=0;" edge="1" parent="1" source="dstXWBgIuasM4XewW3nN-11" target="anY5kWendyJgziAYYlbM-3">
          <mxGeometry relative="1" as="geometry" />
        </mxCell>
        <mxCell id="dstXWBgIuasM4XewW3nN-11" value="" style="rhombus;whiteSpace=wrap;html=1;" vertex="1" parent="1">
          <mxGeometry x="399.5" y="405" width="56.5" height="50" as="geometry" />
        </mxCell>
        <mxCell id="dstXWBgIuasM4XewW3nN-14" value="(1,N)" style="text;html=1;align=center;verticalAlign=middle;resizable=0;points=[];autosize=1;strokeColor=none;fillColor=none;" vertex="1" parent="1">
          <mxGeometry x="311" y="460" width="50" height="30" as="geometry" />
        </mxCell>
        <mxCell id="dstXWBgIuasM4XewW3nN-15" value="N:N" style="text;html=1;align=center;verticalAlign=middle;resizable=0;points=[];autosize=1;strokeColor=none;fillColor=none;" vertex="1" parent="1">
          <mxGeometry x="407.75" y="455" width="40" height="30" as="geometry" />
        </mxCell>
        <mxCell id="dstXWBgIuasM4XewW3nN-16" value="(0,N)" style="text;html=1;align=center;verticalAlign=middle;resizable=0;points=[];autosize=1;strokeColor=none;fillColor=none;" vertex="1" parent="1">
          <mxGeometry x="560" y="370" width="50" height="30" as="geometry" />
        </mxCell>
        <mxCell id="dstXWBgIuasM4XewW3nN-17" value="(1,1)" style="text;html=1;align=center;verticalAlign=middle;resizable=0;points=[];autosize=1;strokeColor=none;fillColor=none;" vertex="1" parent="1">
          <mxGeometry x="220" y="230" width="50" height="30" as="geometry" />
        </mxCell>
        <mxCell id="dstXWBgIuasM4XewW3nN-18" value="1:N" style="text;html=1;align=center;verticalAlign=middle;resizable=0;points=[];autosize=1;strokeColor=none;fillColor=none;" vertex="1" parent="1">
          <mxGeometry x="447.75" y="270" width="40" height="30" as="geometry" />
        </mxCell>
      </root>
    </mxGraphModel>
  </diagram>
</mxfile>
